<?xml version="1.0" encoding="UTF-8" standalone="no"?>
<!-- Created with Inkscape (http://www.inkscape.org/) -->

<svg
   width="200mm"
   height="140mm"
   viewBox="0 0 200 140"
   version="1.1"
   id="svg1"
   xml:space="preserve"
   sodipodi:docname="Tron_font-white.svg"
   inkscape:version="1.4.2 (ebf0e940d0, 2025-05-08)"
   xmlns:inkscape="http://www.inkscape.org/namespaces/inkscape"
   xmlns:sodipodi="http://sodipodi.sourceforge.net/DTD/sodipodi-0.dtd"
   xmlns="http://www.w3.org/2000/svg"
   xmlns:svg="http://www.w3.org/2000/svg"><sodipodi:namedview
     id="namedview1"
     pagecolor="#505050"
     bordercolor="#eeeeee"
     borderopacity="1"
     inkscape:showpageshadow="0"
     inkscape:pageopacity="0"
     inkscape:pagecheckerboard="0"
     inkscape:deskcolor="#505050"
     inkscape:document-units="mm"
     showgrid="true"
     inkscape:zoom="0.57457739"
     inkscape:cx="212.32997"
     inkscape:cy="251.48918"
     inkscape:window-width="1366"
     inkscape:window-height="700"
     inkscape:window-x="0"
     inkscape:window-y="0"
     inkscape:window-maximized="1"
     inkscape:current-layer="g1"><inkscape:grid
       id="grid1"
       units="mm"
       originx="0"
       originy="0"
       spacingx="20"
       spacingy="20"
       empcolor="#0099e5"
       empopacity="0.30196078"
       color="#0099e5"
       opacity="0.14901961"
       empspacing="5"
       enabled="true"
       visible="true" /></sodipodi:namedview><defs
     id="defs1" /><g
     inkscape:label="Layer 1"
     inkscape:groupmode="layer"
     id="layer1"><g
       id="g1"><path
         d="m 8.0759212,36.720111 c -0.14682,-0.14682 -0.26694,-0.90287 -0.26694,-1.68012 v -1.41322 l -1.77651,-0.11399 -1.77652,-0.114 -0.11399,-1.77651 -0.114,-1.77652 h 1.89051 1.89051 v -1.80768 c 0,-0.99423 0.0723,-1.87997 0.16063,-1.96831 0.0883,-0.0884 0.92985,-0.0995 1.8700197,-0.0247 l 1.7093901,0.13596 v 1.83235 1.83236 h 1.7035 1.70351 l -0.11399,1.77652 -0.11399,1.77651 -1.56902,0.11401 c -1.55427,0.112938 -1.57008,0.12874 -1.68301,1.68301 -0.11214,1.54342 -0.13863,1.57083 -1.6235901,1.68011 -0.8302697,0.0611 -1.6296997,-0.009 -1.7765097,-0.15583 z m 2.3510898,-2.57329 v -1.68305 h 1.68301 c 1.5592,0 1.68302,-0.0709 1.68302,-0.9636 0,-0.90257 -0.10069,-0.956241 -1.58952,-0.84727 l -1.58951,0.11634 -0.11305,-1.95776 c -0.10377,-1.797 -0.18821,-1.95776 -1.0285101,-1.95776 -0.8551097,0 -0.9154097,0.12945 -0.9148497,1.96352 l 6e-4,1.96352 h -1.77712 c -1.5582,0 -1.79185,0.10367 -1.89664,0.84151 -0.11045,0.77773 0.0242,0.8415 1.77652,0.8415 h 1.89603 v 1.68302 c 0,1.54588 0.0762,1.68302 0.9350097,1.68302 0.8588201,0 0.9350101,-0.13714 0.9350101,-1.68302 z"
         style="fill:#ffffff;fill-opacity:1"
         id="path1-6" /><path
         d="m 27.849779,37.118526 0.111347,-2.33752 1.780331,-0.11415 c 1.340959,-0.086 1.835495,0.0296 2.003853,0.46835 0.612459,1.59604 -1.302745,4.32085 -3.037023,4.32085 -0.952231,0 -0.967831,-0.0425 -0.858508,-2.33753 z m 2.552759,0.0741 c 0.580853,-1.08533 0.429446,-1.4766 -0.571395,-1.4766 -0.817634,0 -0.935008,0.16285 -0.935008,1.29728 0,1.00996 0.12655,1.24871 0.571395,1.07801 0.314267,-0.1206 0.735021,-0.52501 0.935008,-0.89869 z"
         style="fill:#ffffff;fill-opacity:1"
         id="path1-7" /><path
         d="m 44.558052,32.745059 c -0.3156,0 -0.15164,-1.09872 -0.0857,-1.78684 l 0.11985,-1.25111 h 5.42305 5.42305 v 1.68301 1.68302 l -5.33733,0.10382 c -4.35622,0.0847 -5.07489,-0.4319 -5.5429,-0.4319 z m 9.94522,-1.35495 c 0,-0.70645 -0.24933,-0.748 -4.48804,-0.748 -4.2387,0 -4.48804,0.0416 -4.48804,0.748 0,0.70646 0.24934,0.74801 4.48804,0.74801 4.23871,0 4.48804,-0.0416 4.48804,-0.74801 z"
         style="fill:#ffffff;fill-opacity:1"
         id="path1-3"
         sodipodi:nodetypes="scccccccsssssss" /><path
         d="m 68.920542,37.048233 v -1.68301 h 1.870016 1.870017 v 1.68301 1.68302 h -1.870017 -1.870016 z m 2.739241,0.0366 c 0.252196,-0.65722 -0.04922,-0.97158 -0.931559,-0.97158 -0.436337,0 -0.685672,0.272 -0.685672,0.74801 0,0.87123 1.299751,1.05091 1.617231,0.22357 z"
         style="fill:#ffffff;fill-opacity:1"
         id="path1-28" /><path
         d="m 85.456696,38.388123 c 0.06857,-0.18872 1.63938,-3.46269 3.490698,-7.27548 l 3.366031,-6.93234 2.15052,-0.0176 c 1.182785,-0.01 2.150519,0.12973 2.150519,0.30979 0,0.18005 -0.899711,2.24175 -1.999358,4.58154 -1.099647,2.33979 -2.555126,5.47435 -3.234396,6.96569 l -1.235037,2.71153 H 87.73885 c -1.323752,0 -2.350721,-0.15442 -2.282154,-0.34315 z m 4.807511,-2.55538 c 1.601677,-3.39473 4.854244,-10.54079 4.854244,-10.66502 0,-0.0687 -0.44579,-0.12498 -0.990644,-0.12498 -0.911995,0 -1.223773,0.48729 -3.927036,6.13775 -1.615016,3.37576 -2.936392,6.20322 -2.936392,6.28325 0,0.08 0.48637,0.14552 1.080822,0.14552 0.922427,0 1.203659,-0.26035 1.919006,-1.77652 z"
         style="fill:#ffffff;fill-opacity:1"
         id="path1-1" /><path
         d="m 25.163396,59.355041 c 0,-0.0689 0.56531,-1.28904 1.25625,-2.71153 2.22468,-4.58014 3.23179,-6.76681 3.23179,-7.01697 0,-0.13443 -1.52311,-0.24441 -3.38469,-0.24441 h -3.3847 l 0.11217,-2.15052 0.11216,-2.150521 6.70447,-0.1024 c 3.68745,-0.0563 6.82055,0.0278 6.96245,0.187 0.14189,0.15917 -1.17325,3.445061 -2.92255,7.301971 l -3.18054,7.01256 h -2.7534 c -1.51437,0 -2.75341,-0.0563 -2.75341,-0.12518 z m 6.49714,-4.57955 c 0.98793,-2.1762 1.71468,-4.03828 1.615,-4.13796 -0.22313,-0.22312 -2.45969,-0.30491 -2.65152,-0.097 -0.20017,0.21698 -3.9646,7.84505 -3.9646,8.03367 0,0.0869 0.7211,0.15797 1.60244,0.15797 h 1.60245 z m 3.41395,-7.63738 0.58022,-1.12201 h -5.99366 -5.99366 v 1.12201 1.12201 h 5.41344 5.41345 z"
         style="fill:#ffffff;fill-opacity:1"
         id="path1-5"
         sodipodi:nodetypes="sssscccccscsscscssccccccccccc" /><path
         d="m 182.60529,36.685778 0.11305,-1.96352 4.6159,-0.187 c 4.28618,-0.17364 4.66687,-0.25007 5.32955,-1.06994 0.3925,-0.48562 0.71365,-1.12515 0.71365,-1.42118 0,-0.41891 0.47675,-0.51337 2.15052,-0.42607 2.14904,0.11209 2.15042,0.11293 2.01812,1.23417 -0.25905,2.19534 -2.16686,4.59841 -4.28649,5.39926 -0.57907,0.21879 -3.23862,0.3978 -5.9101,0.3978 h -4.85724 z m 9.46313,0.80357 c 0,2.16359 4.30104,-2.84974 4.30104,-4.43153 0,-0.94722 -1.9154,-0.33203 -3.14444,1.00994 l -1.2845,1.40251 -4.14359,0.12659 -4.14358,0.12659 v 1.08892 1.08892 l 3.45953,-0.002 c 1.90274,-10e-4 4.95554,-1.26268 4.95554,-0.40985 z m -9.19735,-7.33245 c 0.28489,0 -0.0178,-5.22603 0.0174,-5.81343 0.009,-0.15428 3.21458,-0.28051 7.12291,-0.28051 h 7.10607 v 2.24402 2.24402 h -4.51155 c -4.46398,0 -4.51032,0.009 -4.39454,0.84151 0.11093,0.79778 -0.0239,0.84722 -2.59452,0.9514 -1.49134,0.0604 -2.91017,-0.18701 -2.74579,-0.18701 z m 4.45365,-1.6994 0.11835,-1.02851 h 4.4632 4.46319 v -1.12201 -1.12201 h -6.35805 -6.35806 v 1.99469 c 0,1.09708 0.12012,2.1148 0.26693,2.26162 0.14682,0.14681 0.94625,0.21694 1.77652,0.15583 1.33613,-0.0983 1.52318,-0.22927 1.62792,-1.13961 z"
         style="fill:#ffffff;fill-opacity:1"
         id="path1-06" /><path
         d="m 171.3438,36.592173 3.8e-4,-1.96352 h -4.76892 -4.76893 l -0.11294,-1.15837 c -0.10029,-1.02868 0.22238,-1.46064 2.88221,-3.85844 2.61209,-2.35477 3.15268,-2.68494 4.22697,-2.58167 1.14313,0.10989 1.24057,0.22578 1.35319,1.60957 0.0667,0.82014 0.31921,1.61429 0.56101,1.76478 0.31938,0.19877 0.4908,-0.61835 0.62664,-2.98718 l 0.18701,-3.26078 h 2.05701 2.05702 l 0.10158,7.19956 0.10158,7.19957 h -2.2521 -2.2521 z m 3.36565,-5.14255 v -6.35806 h -1.12202 -1.12201 v 6.35806 6.35806 h 1.12201 1.12202 z m -4.48805,1.12201 c 0,-0.748 -0.187,-1.12201 -0.561,-1.12201 -0.41556,0 -0.56101,-0.43634 -0.56101,-1.68301 0,-2.58571 -0.75123,-2.33081 -5.14254,1.74492 -0.87424,0.81141 -1.58952,1.63432 -1.58952,1.8287 0,0.19944 1.71089,0.35341 3.92704,0.35341 h 3.92703 z"
         style="fill:#ffffff;fill-opacity:1"
         id="path1-15"
         sodipodi:nodetypes="ccccssscsscccccccccccccccccsssssscs" /><path
         d="m 141.74611,36.659284 0.11304,-1.96352 4.54412,-0.187 c 3.77532,-0.15537 4.67699,-0.30754 5.32955,-0.89948 0.43198,-0.39186 0.78543,-1.03139 0.78543,-1.42118 0,-0.62644 0.24963,-0.69568 2.15052,-0.59654 2.14905,0.11209 2.15043,0.11294 2.01812,1.23418 -0.25905,2.19534 -2.16685,4.5984 -4.28649,5.39926 -0.57907,0.21878 -3.23862,0.39779 -5.9101,0.39779 h -4.85724 z m 9.46313,0.85658 c 1.56747,-0.35737 4.02462,-2.6577 4.40901,-4.12762 0.16633,-0.63602 0.0127,-0.7495 -1.0148,-0.7495 -0.90279,0 -1.33579,0.23354 -1.70214,0.91808 -0.8186,1.52958 -2.52922,2.07395 -6.51714,2.07395 h -3.59001 v 1.12201 1.12201 l 3.45953,-0.009 c 1.90274,-0.005 4.13274,-0.16241 4.95555,-0.35 z m -3.22578,-5.81233 c -0.0257,-0.10285 -0.0888,-0.3553 -0.14025,-0.56101 -0.0514,-0.2057 -0.11454,-0.8789 -0.14026,-1.49601 l -0.0468,-1.12201 h -2.82369 -2.82369 l 0.11217,-2.15052 0.11216,-2.15052 7.2082,-0.10161 c 6.17556,-0.0871 7.23952,-0.02 7.4269,0.46835 0.45218,1.17836 -0.34109,2.32424 -3.30621,4.77581 -2.41221,1.99442 -3.31357,2.52452 -4.29259,2.52452 -0.68158,0 -1.26028,-0.0841 -1.28599,-0.187 z m 5.09633,-3.27253 c 1.51145,-1.28564 2.76078,-2.5479 2.77629,-2.80503 0.0215,-0.35726 -1.51511,-0.4675 -6.51686,-0.4675 h -6.54506 v 1.12201 1.12201 h 2.99203 2.99202 v 1.68302 c 0,1.45443 0.1055,1.68301 0.77674,1.68301 0.42721,0 2.01338,-1.05188 3.52484,-2.33752 z"
         style="fill:#ffffff;fill-opacity:1"
         id="path1-56" /><path
         d="m 123.62806,37.509675 c 0.52005,-0.57007 1.98946,-2.23352 3.26535,-3.69654 2.7485,-3.15162 3.90975,-3.48783 4.10068,-1.18724 l 0.11526,1.38877 3.43777,0.10724 3.43778,0.10725 v 2.05702 2.05702 l -7.6512,0.10149 -7.6512,0.10149 z m 13.42183,-1.2235 v -1.49601 h -3.59664 -3.59663 l 0.17412,-0.91083 c 0.37881,-1.98163 -0.39218,-1.66866 -2.66845,1.08322 l -2.33232,2.81963 h 6.00996 6.00996 z m -14.21213,-5.62226 c 0,2.01679 1.84358,-4.78313 3.92703,-5.8926 1.53438,-0.81708 5.96765,-0.80406 7.52902,0.0221 1.5151,0.80169 2.95121,2.52426 3.50604,4.20541 0.66757,2.02275 0.33732,2.4251 -1.9905,2.4251 -1.99093,0 -2.01803,-0.0153 -2.58406,-1.45626 -0.44365,-1.12941 -0.83113,-1.51316 -1.72643,-1.7098 -1.56903,-0.34462 -3.11451,0.45435 -3.77305,1.95055 -0.51533,1.17082 -0.61504,1.21551 -2.71153,1.21551 -1.93865,0 -2.17652,-1.43698 -2.17652,-0.76002 z m 4.44511,-1.85801 c 1.25074,-1.31479 1.6279,-1.49601 3.11361,-1.49601 1.8278,0 3.43458,0.94024 3.85148,2.25378 0.17448,0.54974 0.56855,0.73825 1.54332,0.73825 1.18017,0 1.28509,-0.0828 1.06599,-0.84151 -1.06051,-3.67212 -6.17934,-5.53942 -9.70741,-3.54119 -1.48007,0.83828 -3.19009,2.91652 -3.19009,3.877 0,1.07926 1.89021,0.51596 3.3231,-0.99032 z"
         style="fill:#ffffff;fill-opacity:1"
         id="path1-52" /><path
         d="m 108.27937,34.635556 c 0,-2.50514 -0.14754,-3.96372 -0.40979,-4.05113 -0.28462,-0.0949 -0.21022,-1.06527 0.24357,-3.17704 l 0.65336,-3.04044 1.71996,-0.15844 c 0.94598,-0.0871 1.8501,-0.0477 2.00915,0.0877 0.15906,0.1354 0.24322,3.34743 0.18701,7.13785 l -0.1022,6.89167 -2.15053,0.11216 -2.15053,0.11217 z m 3.36605,-3.2537 v -6.3829 l -1.01523,0.11834 c -0.91291,0.10642 -1.05843,0.33507 -1.444,2.26886 -0.23582,1.18279 -0.28387,2.15052 -0.10679,2.15052 0.17709,0 0.32198,1.85132 0.32198,4.11404 v 4.11404 h 1.12202 1.12202 z"
         style="fill:#ffffff;fill-opacity:1"
         id="path1-4" /><path
         d="m 3.011731,58.327131 c -1.06367,-1.06367 -1.09324,-1.1952 -1.09324,-4.86205 v -3.7688 h 6.69063 c 8.31761,0 8.45657,0.0655 8.45638,3.98749 -2.6e-4,5.33844 -0.54608,5.7366 -7.86414,5.7366 h -5.09639 z m 12.21708,-0.89114 c 0.74731,-0.86959 0.90181,-1.45442 0.90181,-3.41373 0,-3.38394 -0.0151,-3.39097 -7.25613,-3.39097 h -6.02099 l -0.10121,2.43102 c -0.11944,2.8689 0.69852,4.87636 2.15823,5.29682 0.51425,0.14813 2.84334,0.23713 5.17574,0.19778 4.14419,-0.0699 4.26127,-0.0954 5.14255,-1.12092 z m -10.93105,-2.31666 c 0.33049,0 -0.11652,-0.81836 0.004,-1.13292 0.18457,-0.48097 1.00862,-0.55531 5.18256,-0.4675 l 4.9631,0.10441 0.11834,1.02851 0.11834,1.02851 h -5.08562 c -4.17555,0 -5.79427,-0.56101 -5.30091,-0.56101 z m 9.02783,-0.561 c -0.12901,-0.20876 -1.8739,-0.37401 -3.94911,-0.37401 -2.2293,0 -3.71796,0.14975 -3.71796,0.37401 0,0.22572 1.56571,0.374 3.94911,0.374 2.5375,0 3.86649,-0.13369 3.71796,-0.374 z m -11.4071,-6.17675 c 0,-0.31158 0.57572,-1.19516 1.27939,-1.96352 l 1.2794,-1.39702 h 4.42416 4.42415 l 0.11305,1.96352 0.11304,1.96352 h -5.81659 c -4.94604,0 -5.8166,-0.0848 -5.8166,-0.5665 z m 10.59743,-0.99442 c -0.46156,0.0231 0.12662,-0.95201 0.0216,-1.12201 -0.10506,-0.17001 -1.77731,-0.3091 -3.71609,-0.3091 -3.38556,0 -3.57339,0.044 -4.74647,1.11105 l -1.22141,1.11104 4.72492,0.011 c 4.54057,0.0105 5.74397,-0.84227 4.93751,-0.80195 z"
         style="fill:#ffffff;fill-opacity:1"
         id="path1-68" /><path
         d="m 43.869496,58.596583 c -0.83144,-0.83144 -0.91801,-1.2194 -0.91801,-4.11404 0,-4.72549 -0.0541,-4.69204 7.58386,-4.69204 7.86981,0 7.75028,-0.0698 7.75028,4.52625 0,3.07067 -0.0795,3.44132 -0.918,4.27983 -0.89617,0.89617 -1.05674,0.91801 -6.74907,0.91801 -5.69232,0 -5.85289,-0.0218 -6.74906,-0.91801 z m 12.74087,-0.61227 c 0.65909,-0.65931 1.15655,-4.2373 0.7914,-5.69216 -0.33678,-1.34184 -1.92968,-1.75364 -6.78321,-1.75364 -4.48016,0 -6.51687,0.44467 -6.59132,1.43909 -0.10286,1.37371 0.027,4.40885 0.22202,5.19 0.30636,1.22701 2.00731,1.57918 7.19765,1.49025 3.60369,-0.0617 4.69405,-0.20397 5.16346,-0.67354 z m -11.27554,-2.76016 c -0.12064,-0.31438 -0.12064,-0.82883 0,-1.14322 0.18486,-0.48173 1.02914,-0.55524 5.36957,-0.4675 l 5.15021,0.1041 v 0.93501 0.93501 l -5.15021,0.10411 c -4.34043,0.0877 -5.18471,0.0142 -5.36957,-0.46751 z m 9.21077,-0.57161 c -0.74384,-0.48071 -7.74398,-0.48071 -8.04107,0 -0.14919,0.24139 1.33491,0.37198 4.18546,0.36828 2.98975,-0.004 4.23537,-0.12286 3.85561,-0.36828 z m -11.2201,-6.30364 c 0,-0.88671 1.55449,-2.57119 2.81504,-3.05045 1.50547,-0.57238 7.84446,-0.4582 9.34389,0.1683 1.11351,0.46526 2.79557,2.44484 2.79981,3.29504 7.6e-4,0.15428 -3.36464,0.2805 -7.47867,0.2805 -7.03436,0 -7.48007,-0.0413 -7.48007,-0.69339 z m 13.46412,-0.43412 c 0,-0.20872 -0.54698,-0.713 -1.21551,-1.12061 -0.99971,-0.60953 -1.88716,-0.74136 -4.99861,-0.74251 -3.26223,-10e-4 -3.91878,0.10533 -4.76854,0.77376 -0.542,0.42633 -0.98545,0.93123 -0.98545,1.12201 0,0.19869 2.55623,0.34685 5.98406,0.34685 3.79782,0 5.98405,-0.13864 5.98405,-0.3795 z"
         style="fill:#ffffff;fill-opacity:1"
         id="path1-49" /><path
         d="m 66.684227,57.545386 0.11304,-1.96352 h 5.79706 c 5.58494,0 5.79296,0.0274 5.68538,0.748 -0.0614,0.41141 -0.69008,1.29499 -1.39702,1.96352 l -1.28535,1.21551 h -4.51308 -4.51308 z m 9.54037,0 1.02777,-1.02851 h -4.76004 -4.76005 v 1.15705 1.15706 l 3.73228,-0.12855 c 3.4908,-0.12023 3.79877,-0.19509 4.76004,-1.15705 z m -11.47379,-2.94087 c -1.35373,-0.54024 -1.49453,-0.95014 -1.50084,-4.3692 -0.005,-2.7761 0.0883,-3.19651 0.88749,-3.99575 1.17922,-1.17922 2.7174,-1.42538 7.88215,-1.26143 5.742,0.18227 5.91848,0.34326 6.20138,5.65715 0.11199,2.10351 0.14413,3.95079 0.0714,4.10507 -0.19628,0.4165 -12.46598,0.29342 -13.54161,-0.13584 z m 12.64724,-3.73388 c -0.12574,-2.76887 -0.227,-3.10518 -1.18246,-3.92703 -0.9764,-0.83986 -1.33601,-0.89883 -5.48155,-0.89883 -2.44013,0 -4.70904,0.10455 -5.04202,0.23232 -0.99206,0.38069 -1.69977,2.21389 -1.69977,4.40294 0,3.0801 0.32765,3.21881 7.60289,3.21881 h 5.94043 z m -11.25528,0.006 c -0.94404,0 -0.85401,-1.68347 -0.0629,-1.98704 0.32537,-0.12486 2.41538,-0.22702 4.64445,-0.22702 4.67301,0 5.23605,0.14076 5.23605,1.30901 0,0.47024 -0.26622,0.95714 -0.5916,1.082 -0.98218,0.3769 -8.41294,-0.17695 -9.22599,-0.17695 z m 6.73206,-0.99443 c -1.18279,-0.0742 -3.11825,-0.0742 -4.30104,0 -1.18279,0.0742 -0.21505,0.13495 2.15052,0.13495 2.36557,0 3.3333,-0.0607 2.15052,-0.13495 z"
         style="fill:#ffffff;fill-opacity:1"
         id="path1-92" /><path
         d="m 87.24361,58.97781 c -1.40808,-0.63035 -3.38251,-2.69087 -3.90409,-4.07433 -1.36361,-3.61686 0.52949,-7.87707 4.17769,-9.40139 7.03518,-2.93949 13.50046,5.61897 8.62329,11.41516 -1.99764,2.37405 -6.083,3.32024 -8.89689,2.06056 z m 6.34699,-1.0698 c 2.22112,-1.258 3.19009,-2.93002 3.19009,-5.5047 0,-2.57469 -0.96897,-4.24671 -3.19009,-5.50471 -1.72953,-0.97957 -4.54502,-1.13029 -6.08506,-0.32574 -4.19626,2.19224 -5.01823,7.23078 -1.69507,10.39054 2.09707,1.99396 5.25126,2.37692 7.78013,0.94461 z m -4.89649,-1.9236 c -3.39968,-1.49267 -3.13289,-6.14874 0.4195,-7.32113 1.56049,-0.51501 2.65197,-0.23424 4.00238,1.02958 1.32174,1.237 1.62835,2.72077 0.88565,4.2859 -0.97742,2.05976 -3.23838,2.91414 -5.30753,2.00565 z m 2.87512,-2.09825 c 0.4625,-0.24752 0.72342,-0.78235 0.72342,-1.48285 0,-1.92174 -2.51193,-2.57643 -3.58742,-0.93501 -0.56751,0.86614 -0.56751,1.00387 0,1.87001 0.64895,0.99042 1.67154,1.18603 2.864,0.54785 z"
         style="fill:#ffffff;fill-opacity:1"
         id="path1-50" /><path
         d="m 108.33819,56.552931 c -0.19395,0 -0.24934,-1.15535 -0.24934,-2.26269 v -2.01335 l 2.12584,0.11217 2.12585,0.11216 0.0933,1.49602 c 0.15682,2.51455 -0.0569,2.80502 -2.06384,2.80502 -0.98036,0 -1.83788,-0.24933 -2.03181,-0.24933 z m 3.11669,-1.99469 c 0,-1.03296 -0.10389,-1.12201 -1.30901,-1.12201 -1.20512,0 -1.30901,0.0891 -1.30901,1.12201 0,1.03296 0.10389,1.12201 1.30901,1.12201 1.20512,0 1.30901,-0.0891 1.30901,-1.12201 z m -3.17451,-2.98475 c -0.0682,-0.11026 -0.17557,-1.0406 -0.23871,-2.06741 l -0.11481,-1.86693 h 2.2065 2.20649 l 0.064,1.78813 c 0.0352,0.98347 -0.11703,1.90002 -0.33831,2.03678 -0.48711,0.30105 -3.61094,0.39136 -3.78518,0.10943 z m 3.17451,-1.87732 c 0,-1.03296 -0.10389,-1.12201 -1.30901,-1.12201 -1.20512,0 -1.30901,0.0891 -1.30901,1.12201 0,1.03296 0.10389,1.12201 1.30901,1.12201 1.20512,0 1.30901,-0.0891 1.30901,-1.12201 z"
         style="fill:#ffffff;fill-opacity:1"
         id="path1-72" /><path
         d="m 128.45602,56.615241 v -2.43102 h 2.07852 2.07852 l -0.115,1.57731 c -0.0959,1.31563 -0.32583,1.71893 -1.38583,2.43102 -2.21727,1.48953 -2.65621,1.22888 -2.65621,-1.57731 z m 2.71152,0.25919 c 1.07278,-0.92136 0.80281,-1.5682 -0.65451,-1.5682 -1.24442,0 -1.30901,0.064 -1.30901,1.29728 0,1.07458 0.11235,1.25743 0.65451,1.06516 0.35998,-0.12766 0.94903,-0.48507 1.30901,-0.79424 z m -2.63669,-7.08476 0.11217,-2.15052 h 1.87001 1.87002 l 0.11217,2.15052 0.11216,2.15052 h -2.09435 -2.09434 z m 3.29119,-0.0935 c 0,-1.03296 -0.10388,-1.12201 -1.30901,-1.12201 -1.20512,0 -1.30901,0.0891 -1.30901,1.12201 0,1.03296 0.10389,1.12201 1.30901,1.12201 1.20513,0 1.30901,-0.0891 1.30901,-1.12201 z"
         style="fill:#ffffff;fill-opacity:1"
         id="path1-10" /><path
         d="m 149.49503,55.951282 c -2.15987,-1.00388 -4.22157,-2.00502 -4.58155,-2.22477 -0.66401,-0.40535 -0.87877,-2.08349 -0.36827,-2.87771 0.15112,-0.23512 1.95779,-1.12688 4.01481,-1.98169 2.05702,-0.85481 4.03228,-1.71432 4.38946,-1.91003 1.16485,-0.63824 1.40759,-0.38329 1.40759,1.47842 v 1.83426 l -2.05702,0.85259 c -1.13136,0.468925 -2.05702,0.94901 -2.05702,1.06685 0,0.11785 0.88359,0.55482 1.96352,0.97103 l 1.96352,0.75675 0.11304,1.95218 c 0.0823,1.42039 -0.0196,1.94608 -0.374,1.92977 -0.26788,-0.0123 -2.25421,-0.84377 -4.41408,-1.84765 z m 3.74003,-0.49179 c 0,-0.7283 -0.38619,-1.00218 -2.43102,-1.72407 -3.29631,-1.1637 -3.23382,-1.89116 0.27519,-3.20337 2.04779,-0.76577 2.62143,-1.30743 2.16564,-2.04491 -0.26455,-0.42806 -0.74039,-0.33887 -2.69013,0.50422 -1.3028,0.56335 -2.99986,1.2914 -3.77124,1.6179 -1.06271,0.4498 -1.40251,0.80974 -1.40251,1.48562 0,0.75762 0.52117,1.13882 3.45953,2.53042 1.90274,0.90113 3.66991,1.65228 3.92704,1.66923 0.25712,0.0169 0.4675,-0.35883 0.4675,-0.83504 z"
         style="fill:#ffffff;fill-opacity:1"
         id="path1-490" /><path
         d="m 165.20147,55.940315 c -0.14268,-0.14268 -0.25942,-0.98872 -0.25942,-1.8801 v -1.62071 h 5.44354 5.44354 l -0.11399,1.77652 -0.11399,1.77651 -5.07013,0.10359 c -2.78858,0.057 -5.18687,-0.0132 -5.32955,-0.15584 z m 9.75291,-1.81776 0.0774,-0.93501 h -4.48385 -4.48385 v 0.93501 0.93501 h 4.40647 4.40646 z m -9.79901,-2.3424 c 0,-0.16593 -0.21332,-0.94263 -0.21332,-1.834 v -1.62069 h 5.44354 5.44354 l -0.11399,1.77652 -0.11399,1.77652 -5.11623,0.0575 c -2.81393,0.0316 -5.32955,0.0101 -5.32955,-0.15583 z m 9.81728,-1.67817 c -0.11519,-0.81111 -0.27825,-0.845316 -4.51405,-0.94688 l -4.39454,-0.10537 v 0.94688 0.94688 h 4.51405 c 4.46732,0 4.51282,-0.009 4.39454,-0.84151 z"
         style="fill:#ffffff;fill-opacity:1"
         id="path1-11" /><path
         d="m 185.16226,55.851191 v -1.97957 l 2.05702,-0.6992 c 1.13136,-0.38456 2.05702,-0.81763 2.05702,-0.96237 0,-0.14475 -0.88359,-0.59809 -1.96352,-1.00742 l -1.96352,-0.74424 -0.11304,-1.92387 c -0.0622,-1.05813 -0.052,-1.92387 0.0226,-1.92387 0.0746,0 2.22923,0.889028 4.78809,1.97561 l 4.65246,1.9756 0.11197,1.51534 0.11197,1.51534 -4.68827,2.11911 c -2.57854,1.165507 -4.77478,2.11911 -4.88051,2.11911 -0.10574,0 0.89651,-1.97957 -0.19225,-1.97957 z m 8.89945,-3.67133 c 0.10104,-0.8385 -0.2391,-1.06194 -4.02053,-2.64115 -4.04443,-1.68905 -4.13091,-1.70732 -4.13091,-0.87268 0,0.69391 0.45221,1.04468 2.43102,1.88568 3.20799,1.36342 3.22773,2.04811 0.0935,3.24189 -1.97177,0.75102 -2.35567,1.04482 -2.45345,1.87769 l -0.11592,0.98737 4.04296,-1.7814 c 3.42127,-1.507472 4.05993,-1.92226 4.15333,-2.6974 z"
         style="fill:#ffffff;fill-opacity:1"
         id="path1-67" /><path
         d="m 42.954998,78.86096 c 0.06857,-0.17799 1.301554,-3.46748 2.739971,-7.31 2.587891,-6.91316 2.626343,-6.98523 3.668506,-6.87596 1.005745,0.10545 1.14216,0.37164 3.027389,5.90748 1.085802,3.18838 2.245438,6.42818 2.576967,7.19957 l 0.60278,1.40251 h -2.207338 c -2.69825,0 -4.079487,-0.58349 -4.662274,-1.96953 l -0.442608,-1.05266 -0.498706,1.51109 -0.498706,1.5111 h -2.215325 c -1.218428,0 -2.159224,-0.14562 -2.090656,-0.3236 z m 4.484884,-3.26022 c 0.741915,-1.93073 1.192548,-2.61754 1.775914,-2.70667 0.554651,-0.0847 0.887853,0.1597 1.147076,0.84151 0.264598,0.69594 0.63678,0.96094 1.349629,0.96094 0.629872,0 0.922313,-0.16834 0.812184,-0.46751 -0.09465,-0.25712 -0.722654,-2.15052 -1.395558,-4.20753 -1.213421,-3.70934 -1.66888,-4.63524 -2.078593,-4.22552 -0.292707,0.2927 -4.661857,11.80245 -4.661857,12.28083 0,0.21194 0.46283,0.32367 1.02851,0.24827 0.889175,-0.11851 1.163193,-0.48757 2.022695,-2.72432 z m 6.672884,2.62422 c 0,-0.11637 -0.174223,-0.53713 -0.387163,-0.93501 -0.304886,-0.56968 -0.791494,-0.72342 -2.289815,-0.72342 -1.707527,0 -1.851343,0.0618 -1.402338,0.60285 0.275173,0.33156 0.84276,0.74165 1.261306,0.9113 0.880476,0.35689 2.81801,0.45609 2.81801,0.14428 z m -4.379674,-3.52844 c -0.107585,-0.41141 -0.324651,-0.74801 -0.482371,-0.74801 -0.157719,0 -0.374786,0.3366 -0.48237,0.74801 -0.142483,0.54485 -0.01147,0.748 0.48237,0.748 0.493846,0 0.624854,-0.20315 0.482371,-0.748 z"
         style="fill:#ffffff;fill-opacity:1"
         id="path1-39" /><path
         d="m 65.075528,74.537421 v -4.67505 h 2.221745 2.221745 l -0.04463,2.33753 -0.04463,2.33752 1.562919,0.115 c 0.859605,0.0632 1.562919,-0.0409 1.562919,-0.23144 0,-0.19055 -0.504905,-0.287662 -1.122011,-0.21581 l -1.12201,0.13064 v -2.23672 -2.23672 h 4.862044 c 4.495526,0 4.862045,0.0526 4.862045,0.69757 0,1.08684 -1.461678,2.68146 -3.144406,3.4304 -1.517692,0.67548 -1.521147,0.68157 -0.408627,0.71955 1.737159,0.0593 3.553033,1.92515 3.553033,3.65078 v 0.85179 h -7.480068 -7.480069 z m 13.838127,3.52844 c 0,-1.32996 -2.078845,-2.78838 -3.601525,-2.52666 -0.546877,0.094 -0.725088,-0.145 -0.816712,-1.09528 -0.102995,-1.06822 -0.0077,-1.21551 0.786199,-1.21551 0.994632,0 3.295934,-1.40466 3.545363,-2.164 0.123391,-0.37564 -0.689409,-0.45756 -3.711201,-0.37401 l -3.869194,0.10698 v 1.12201 c 0,0.95586 0.166194,1.14971 1.122278,1.30902 0.960197,0.15999 1.120311,0.34904 1.108657,1.30901 -0.0075,0.6171 -0.133839,1.07993 -0.280771,1.02851 -0.146932,-0.0514 -1.276958,-0.0935 -2.511169,-0.0935 h -2.244021 v -2.43103 -2.43102 h -1.309012 -1.309012 v 3.6777 c 0,2.02274 0.112201,3.7899 0.249336,3.92704 0.436615,0.43661 12.840784,0.29243 12.840784,-0.14926 z M 65.075528,66.870401 v -2.24402 h 5.709387 c 4.815205,0 5.913486,0.10747 7.012564,0.68622 1.269719,0.66861 2.772321,2.86614 2.386561,3.49032 -0.105886,0.17132 -3.548618,0.3115 -7.650516,0.3115 h -7.457996 z m 13.607983,0.58344 c -0.540239,-1.40784 -1.835737,-1.70545 -7.423768,-1.70545 h -5.436208 v 1.12201 1.12201 h 6.533322 c 5.532769,0 6.501671,-0.0825 6.326654,-0.53857 z"
         style="fill:#ffffff;fill-opacity:1"
         id="path1-93" /><path
         d="m 87.553299,78.506324 c -4.819792,-1.841343 -5.698408,-9.58149 -0.823302,-12.80884 1.404269,-0.92964 1.806087,-1.00333 5.470486,-1.00333 h 3.954894 v 2.05702 2.05702 l -3.443257,0.10732 c -3.200313,0.0998 -3.497181,0.17587 -4.207538,1.07894 -1.039052,1.32094 -0.978039,2.93502 0.153727,4.06678 0.839357,0.83936 1.20785,0.91801 4.301039,0.91801 h 3.383031 v 2.05702 2.05702 l -3.833535,-0.002 c -1.116134,0.121177 -3.609946,-0.07089 -4.955545,-0.58496 z m 7.66707,-1.28306 c 0,-1.11635 -0.01085,-1.12202 -2.15052,-1.12409 -1.182786,-0.001 -2.790405,-0.17978 -3.572487,-0.39696 -2.990162,-0.83034 -3.781343,-4.67283 -1.40025,-6.80052 1.051981,-0.94003 1.407904,-1.02851 4.13713,-1.02851 h 2.986127 v -1.12201 -1.12201 h -3.006927 c -3.774723,0 -5.525248,0.79234 -6.888029,3.11775 -1.446654,2.46853 -1.190885,5.28741 0.663284,7.31018 1.39399,1.52074 3.539369,2.27094 6.520147,2.27997 l 2.711525,0.008 z"
         style="fill:#ffffff;fill-opacity:1"
         id="path1-509"
         sodipodi:nodetypes="sssccccsssccccsscssscccsssccs" /><path
         d="m 103.91611,79.066789 c 0.0937,-0.0781 -0.0394,-1.01953 -0.0549,-1.99661 l -0.0281,-1.77652 3.45524,-0.187 c 3.0599,-0.16561 3.53689,-0.28803 4.1689,-1.06994 1.62887,-2.01525 0.4272,-4.91412 -2.03707,-4.91412 h -1.25471 l 0.0237,1.96352 0.0237,1.96352 h -2.13505 c -1.17428,0 -2.13505,-0.12623 -2.13505,-0.2805 v -4.20754 -3.92704 l 3.08553,0.002 c 4.07647,0.003 5.77853,0.51521 7.41744,2.23322 3.17982,3.33329 2.73878,8.23975 -0.99705,11.092 -1.31258,1.00213 -1.66731,1.08006 -5.4549,1.19842 -2.22806,0.0696 -4.17141,-0.0154 -4.07773,-0.0935 z m 6.8625,-0.99059 c 4.26485,-1.18436 6.12516,-6.41363 3.50413,-9.84997 -1.41844,-1.85968 -3.0394,-2.46966 -6.5629,-2.46966 h -3.02901 v 3.17903 3.17903 h 1.30901 1.30902 v -2.05702 -2.05702 h 1.67711 c 2.24836,0 3.9023,1.41342 4.15768,3.55304 0.36718,3.07632 -1.65838,4.67348 -5.92829,4.67446 -2.39524,5.5e-4 -2.52453,0.0453 -2.52453,0.87325 0,0.47998 0.1122,0.98488 0.24934,1.12201 0.38738,0.38738 4.26558,0.28963 5.83844,-0.14715 z"
         style="fill:#ffffff;fill-opacity:1"
         id="path1-61" /><path
         d="m 123.82635,78.829306 c -0.0134,-0.15428 -0.0245,-2.21597 -0.0246,-4.58154 l -3.4e-4,-4.30104 6.00869,-0.10277 c 6.60626,-0.11299 6.62018,-0.10755 5.46207,2.132 -0.68498,1.3246 -2.95521,2.27181 -5.44499,2.27181 -1.02435,0 -1.86244,0.16312 -1.86244,0.36249 0,0.20854 1.94573,0.40709 4.58153,0.4675 l 4.58155,0.10501 0.11304,1.96352 0.11305,1.96352 h -6.7516 c -3.71339,0 -6.76255,-0.12623 -6.77591,-0.2805 z m 12.44619,-1.58952 0.16468,-1.12201 h -4.61027 -4.61027 v -1.49601 -1.49601 h 2.58933 c 2.24,0 2.74457,-0.13063 3.74003,-0.96826 0.63289,-0.53254 1.15071,-1.12159 1.15071,-1.30901 0,-0.18818 -2.26077,-0.34076 -5.04905,-0.34076 h -5.04904 v 3.6777 c 0,2.02274 0.1122,3.7899 0.24933,3.92704 0.13714,0.13713 2.72671,0.24933 5.75461,0.24933 h 5.50526 z m -12.25806,-8.63951 c -0.1458,-0.23591 -0.28118,-1.20757 -0.30084,-2.15924 l -0.0358,-1.73031 h 6.72493 6.72494 v 2.05702 2.05702 l -6.4241,0.10221 c -4.52679,0.072 -6.50239,-0.0245 -6.68918,-0.3267 z m 12.17828,-1.83253 v -1.12201 h -5.79705 -5.79705 v 1.12201 1.12201 h 5.79705 5.79705 z"
         style="fill:#ffffff;fill-opacity:1"
         id="path1-48" /><path
         d="m 142.67118,74.434761 v -4.69371 h 5.98405 c 6.56297,0 6.57991,0.007 5.43742,2.21624 -0.68182,1.31849 -2.95253,2.27181 -5.41123,2.27181 h -1.82869 l 0.0597,2.33752 0.0597,2.33752 -2.15052,0.11216 -2.15052,0.11217 z m 3.36603,1.29035 v -2.61803 h 2.44959 c 2.08707,0 4.65647,-0.71072 4.65647,-1.28802 0,-0.0807 0.10408,-0.41805 0.2313,-0.74957 0.2068,-0.53891 -0.29832,-0.59167 -4.76854,-0.49809 l -4.99984,0.10466 -0.109,3.33643 c -0.06,1.83504 -0.0232,3.56013 0.0818,3.83354 0.10492,0.2734 0.70094,0.4971 1.32451,0.4971 h 1.13374 z m -3.21096,-7.24136 c -0.11125,-0.2899 -0.14961,-1.26163 -0.0852,-2.15939 l 0.1171,-1.6323 h 6.54505 6.54506 v 2.05702 2.05701 l -6.45989,0.10237 c -5.28103,0.0837 -7.1237,-0.42471 -6.66215,-0.42471 z m 12.56104,-1.73467 v -1.12201 h -5.98406 -5.98405 v 1.12201 1.12201 h 5.98405 5.98406 z"
         style="fill:#ffffff;fill-opacity:1"
         id="path1-44" /><path
         d="m 167.64754,78.389425 c 0,0.95491 -2.03245,-1.46694 -2.61803,-2.31193 -0.91334,-1.31795 -1.06469,-1.89521 -1.06469,-4.06064 0,-2.20324 0.14335,-2.72826 1.12718,-4.12808 1.8496,-2.63166 3.08117,-3.13568 7.6619,-3.13568 h 3.92703 v 2.05702 2.05702 l -3.63176,0.187 c -3.06306,0.15772 -3.72006,0.30413 -4.19564,0.93501 -1.50681,1.99882 0.0214,5.08615 2.48085,5.01176 1.11418,-0.0337 1.14398,-0.062 0.3104,-0.29432 -0.91783,-0.25584 -2.54755,-2.49446 -2.12419,-2.91782 0.25532,-0.25532 5.45275,-0.17594 5.8828,0.0898 0.59786,0.3695 1.50474,3.93203 1.39364,5.47465 l -0.1161,1.61197 -3.74003,0.0999 c -3.16519,0.0845 -5.29336,-2.14502 -5.29336,-0.67569 z m 8.09838,-1.10722 c 0,-1.11635 -0.0109,-1.12202 -2.15052,-1.12409 -1.18278,-10e-4 -2.7904,-0.17978 -3.57248,-0.39696 -2.99017,-0.83034 -3.78135,-4.67283 -1.40025,-6.80052 1.05198,-0.94003 1.4079,-1.02851 4.13713,-1.02851 h 2.98612 v -1.12201 -1.12201 h -3.029 c -3.54298,0 -5.14421,0.60964 -6.59416,2.51063 -1.39943,1.83474 -1.613,4.80756 -0.48297,6.72281 1.46742,2.48709 3.48738,3.40732 7.58161,3.45393 l 2.52452,0.0287 z m -1.12201,-4.11403 c -0.31163,-0.5823 -0.78309,-0.74801 -2.12814,-0.74801 -1.70413,0 -1.71854,0.0103 -1.05089,0.74801 0.45538,0.50318 1.15192,0.748 2.12815,0.748 1.33531,0 1.41923,-0.0597 1.05088,-0.748 z"
         style="fill:#ffffff;fill-opacity:1"
         id="path1-31" /><path
         d="m 183.84056,78.972146 c -0.13713,-0.13714 -0.24933,-2.2354 -0.24933,-4.6628 v -4.41346 l 4.20754,-0.10575 4.20753,-0.10575 0.11101,-2.54266 0.111,-2.54267 2.13302,0.11165 2.13301,0.11164 v 7.10607 7.10606 h -2.20267 -2.20268 l -0.0413,-2.43102 -0.0413,-2.43102 h -1.87001 -1.87002 l -0.11059,2.52452 -0.11059,2.52452 h -1.97759 c -1.08768,0 -2.0898,-0.1122 -2.22694,-0.24933 z m 3.41429,-3.2102 0.11059,-2.52452 h 2.77085 2.77085 l 0.11059,2.52452 0.11058,2.52452 h 1.12201 1.12201 l 0.10255,-6.26455 0.10254,-6.26456 h -1.31805 -1.31806 v 2.43102 2.43102 h -4.11404 -4.11403 v 3.95074 3.95073 l 1.21551,-0.1172 1.2155,-0.1172 z m -3.44152,-6.95571 c -0.42983,-0.69548 0.26627,-2.7105 1.18638,-3.43426 0.51503,-0.40512 1.42702,-0.73658 2.02665,-0.73658 h 1.09024 l -0.11217,2.15052 -0.11216,2.15052 -1.93009,0.11189 c -1.06154,0.0615 -2.02852,-0.0474 -2.14885,-0.24209 z m 3.32254,-2.11382 c -0.007,-0.90655 -0.15042,-1.09909 -0.74801,-1.00265 -0.82844,0.1337 -1.67462,1.0664 -1.67462,1.84584 0,0.35372 0.37775,0.47679 1.21551,0.39602 1.07744,-0.10389 1.21456,-0.24465 1.20712,-1.23921 z"
         style="fill:#ffffff;fill-opacity:1"
         id="path1-21" /><path
         d="m 8.1000419,98.772247 c -0.10132,-0.26405 -0.13812,-3.50385 -0.0818,-7.19957 l 0.10246,-6.71949 h 2.0570101 2.05702 l 0.10158,7.19957 0.10158,7.19956 h -2.07684 c -1.3454601,0 -2.1417001,-0.16906 -2.2610501,-0.48007 z m 3.2117901,-1.01594 c 0.007,-0.4114 0.0121,-2.93593 0.0121,-5.61005 0,-2.67413 -0.005,-5.19865 -0.0121,-5.61005 -0.009,-0.5791 -0.26542,-0.74801 -1.13408,-0.74801 H 9.0557419 v 6.35806 6.35806 h 1.1220101 c 0.86866,0 1.12474,-0.16891 1.13408,-0.74801 z"
         style="fill:#ffffff;fill-opacity:1"
         id="path1-41" /><path
         d="m 25.270897,99.114827 c 0.193938,0 -0.249336,-1.0551 -0.249336,-2.03993 v -1.79059 l 2.524523,-0.11059 2.524523,-0.11059 0.104175,-5.1609 0.104174,-5.16089 2.139846,0.11185 2.139846,0.11184 0.0737,5.20195 c 0.08251,5.82416 -0.228121,7.09441 -2.05264,8.39358 -0.926437,0.65968 -1.659665,0.80361 -4.094018,0.80361 -1.631003,0 -3.408732,-0.24934 -3.214795,-0.24934 z m 7.116376,-1.77439 c 1.044695,-0.89771 1.049908,-0.92517 1.171135,-6.17106 l 0.121769,-5.26934 h -1.326425 -1.326425 l -0.104356,4.95555 -0.104357,4.95555 -2.337521,0.11134 c -2.314371,0.11025 -2.337522,0.12228 -2.337522,1.21551 v 1.10417 h 2.597169 c 2.205248,0 2.75552,-0.13607 3.646533,-0.90172 z"
         style="fill:#ffffff;fill-opacity:1"
         id="path1-53" /><path
         d="m 42.869727,98.893789 c -0.107651,-0.28054 -0.147844,-2.43524 -0.08932,-4.78824 0.08653,-3.47884 0.211229,-4.28758 0.667416,-4.32853 0.308553,-0.0277 1.539294,-0.0698 2.73498,-0.0935 l 2.173976,-0.0431 1.102278,-2.43102 1.102278,-2.43103 h 2.6143 c 1.437865,0 2.614301,0.0575 2.614301,0.12768 0,0.0702 -0.673206,1.48683 -1.496014,3.14803 -0.822808,1.66119 -1.496014,3.45879 -1.496014,3.99466 0,0.53587 0.673206,2.31326 1.496014,3.94974 0.822808,1.63648 1.496014,3.06331 1.496014,3.17073 0,0.107407 -1.145597,0.195297 -2.54577,0.195297 h -2.54577 l -1.266517,-2.618027 c -0.696585,-1.43991 -1.478767,-2.61802 -1.738182,-2.61802 -0.322041,0 -0.506744,0.80083 -0.582252,2.52452 l -0.110589,2.52453 -1.9677,0.113187 c -1.399069,0.0805 -2.024262,-0.0342 -2.163429,-0.396867 z m 3.272534,-3.17586 0.110589,-2.52452 1.338538,-0.11227 c 1.326279,-0.11123 1.349207,-0.0881 2.503182,2.52453 l 1.164643,2.63679 h 1.522057 1.522057 l -1.313714,-2.60869 c -0.722543,-1.43478 -1.313714,-3.11538 -1.313714,-3.73466 0,-0.61929 0.58164,-2.22236 1.292533,-3.56237 l 1.292533,-2.4364 -1.573035,0.002 -1.573036,0.002 -0.960231,2.33552 -0.960231,2.33552 -2.686302,0.10989 -2.686303,0.10988 v 3.72365 3.72365 h 1.104923 c 1.103843,0 1.215511,-5.04897 1.215511,-2.52452 z m -3.327057,-7.06328 c -0.08942,-0.23359 -0.109883,-1.15925 -0.04548,-2.05701 l 0.117096,-1.63231 2.15052,-0.11216 2.150519,-0.11217 v 2.04107 2.04107 l -2.105039,0.12812 c -1.335632,0.0813 -2.164461,-0.0271 -2.267616,-0.29661 z m 3.250644,-1.6323 c 0,-0.99734 -0.124668,-1.12201 -1.12201,-1.12201 -0.997343,0 -1.122011,0.12467 -1.122011,1.12201 0,0.99734 0.124668,1.12201 1.122011,1.12201 0.997342,0 1.12201,-0.12467 1.12201,-1.12201 z"
         style="fill:#ffffff;fill-opacity:1"
         id="path1-8" /><path
         d="m 68.121897,98.656282 c -0.655403,-0.40395 -1.375367,-1.07775 -1.599919,-1.49733 -0.317842,-0.593898 -0.580515,-8.230938 -0.409287,-11.899768 0.01467,-0.31439 0.692084,-0.46751 2.068283,-0.46751 h 2.046464 l 0.104056,5.14255 0.104055,5.14255 2.54346,0.11102 2.543461,0.11102 -0.112438,1.945998 -0.112439,1.946 -2.992027,0.100003 c -2.437814,0.0815 -3.212756,-0.0361 -4.183669,-0.634503 z m 6.240687,-1.14849 c 0,-0.4114 0.0029,-0.874228 0.0063,-1.028508 0.0035,-0.15427 -1.048399,-0.36465 -2.337521,-0.4675 l -2.343821,-0.187 -0.104357,-4.95555 -0.104356,-4.95555 h -1.298156 -1.298157 v 4.69362 c 0,6.752328 0.561277,7.617328 4.955545,7.637118 2.278979,0.0103 2.524523,-0.0614 2.524523,-0.73663 z"
         style="fill:#ffffff;fill-opacity:1"
         id="path1-33" /><path
         d="m 83.260501,98.865777 c -0.199981,0.19998 -0.138113,-3.503848 -0.08176,-7.199568 l 0.10246,-6.71949 1.12201,-0.0924 c 0.975704,-0.0803 1.439007,0.27271 3.553033,2.70754 1.337062,1.53996 2.528747,2.80172 2.648189,2.80391 0.119442,0.002 1.297552,-1.24734 2.618024,-2.77676 2.050253,-2.37466 2.57954,-2.78429 3.624443,-2.80502 l 1.223587,-0.0243 -0.101576,7.19956 -0.101577,7.199568 -1.640328,0.117489 c -0.90218,0.0646 -1.82634,-0.0685 -2.053688,-0.295869 -0.243615,-0.24362 -0.363229,-1.38818 -0.291281,-2.787218 0.0766,-1.48953 -0.03572,-2.47139 -0.301515,-2.63566 -0.451353,-0.27895 -5.574755,-0.36998 -5.840957,-0.10378 -0.08691,0.0869 -0.170919,1.15364 -0.186696,2.37052 -0.04425,3.412797 -0.113762,3.521517 -2.251591,3.521517 -1.166159,0 -1.812384,-0.708459 -2.040774,-0.480069 z m 3.199726,-3.633958 v -2.99203 h 1.649922 c 2.153328,0 2.075242,-0.42212 -0.692791,-3.74513 -3.393691,-4.07411 -3.575155,-3.89351 -3.575155,3.55813 v 6.171058 h 1.309012 1.309012 z m 10.846099,-3.17903 c 0,-7.38371 -0.147064,-7.5393 -3.464358,-3.66522 -2.619417,3.05907 -2.753182,3.85222 -0.64968,3.85222 h 1.496014 v 2.99203 2.992028 h 1.309012 1.309012 z"
         style="fill:#ffffff;fill-opacity:1"
         id="path1-88" /><path
         d="m 102.85703,98.91036 c -0.10547,-0.27487 -0.14567,-3.523537 -0.0893,-7.219257 l 0.10246,-6.71949 1.12201,-0.10241 c 0.98511,-0.0899 1.44145,0.26373 3.74003,2.89832 1.53929,1.7643 2.82326,2.92376 3.11612,2.81393 0.27395,-0.10273 0.98923,-0.18679 1.58952,-0.18679 h 1.09142 v -2.80502 -2.80503 h 2.06509 2.0651 l -0.10158,7.19957 -0.10158,7.199568 -0.97145,0.11283 c -0.80175,0.0931 -1.44569,-0.413221 -3.68616,-2.898518 -2.50144,-2.7748 -2.82788,-3.01137 -4.15536,-3.01137 h -1.44066 l -0.10923,2.89853 -0.10923,2.898528 -1.9677,0.11319 c -1.3808,0.0794 -2.0249,-0.0359 -2.15948,-0.386581 z m 3.19217,-3.445137 v -2.78353 l 1.58629,-0.115 c 1.05842,-0.0767 1.62212,-0.30433 1.69396,-0.68393 0.13946,-0.73691 -4.35179,-5.97614 -5.12295,-5.97614 -0.51132,0 -0.58832,0.80769 -0.58832,6.17106 v 6.171057 h 1.21551 1.21551 z m 10.8461,-3.38754 v -6.17106 h -1.30901 -1.30901 v 2.80503 2.80502 h -1.52086 c -1.39539,0 -1.51109,0.0753 -1.40251,0.91285 0.15203,1.17272 4.02658,5.769387 4.88688,5.797687 0.59777,0.0197 0.65451,-0.51347 0.65451,-6.149527 z"
         style="fill:#ffffff;fill-opacity:1"
         id="path1-64" /><path
         d="m 127.97834,98.990902 c -0.67647,-0.20704 -1.88573,-1.03222 -2.68724,-1.83373 -2.2479,-2.247898 -2.82915,-5.272868 -1.54699,-8.050928 2.7983,-6.0631 11.79879,-5.55585 13.89076,0.78286 0.97103,2.94226 -0.31206,6.45649 -3.009,8.241228 -1.60409,1.061539 -4.68693,1.460639 -6.64753,0.86057 z m 6.42981,-1.97764 c 1.76294,-1.344648 2.46721,-2.779938 2.46721,-5.028108 0,-3.25567 -2.32511,-5.69206 -5.69909,-5.97185 -2.55102,-0.21156 -4.34811,0.52876 -5.75222,2.36964 -0.91452,1.199 -1.07781,1.75746 -1.07781,3.68622 0,2.66825 0.91015,4.26423 3.11563,5.463358 2.00432,1.08975 5.14452,0.85502 6.94628,-0.51926 z m -6.46746,-1.945508 c -2.20066,-1.85173 -1.75298,-5.14877 0.86888,-6.39905 3.4762,-1.65768 6.97482,1.7987 5.37494,5.31004 -0.97355,2.13672 -4.30761,2.71823 -6.24382,1.08901 z m 4.04587,-0.33762 c 2.67807,-1.38489 1.66117,-5.43689 -1.36446,-5.43689 -1.49857,0 -3.09683,1.39594 -3.09683,2.70481 0,1.09527 0.95851,2.48668 2.00353,2.9084 1.11823,0.45126 1.26444,0.44077 2.45776,-0.17632 z"
         style="fill:#ffffff;fill-opacity:1"
         id="path1-925" /><path
         d="m 142.00371,99.0873 c -0.13713,-0.137134 -0.24933,-2.249304 -0.24933,-4.693714 v -4.44437 l 2.07938,0.11217 2.07939,0.11216 0.001,4.11404 c 7e-4,2.26272 -0.009,4.32442 -0.0224,4.58154 -0.025,0.495054 -3.42093,0.685584 -3.88835,0.218174 z m 3.1167,-4.612714 v -3.74003 h -1.30901 -1.30901 v 3.74003 3.74004 h 1.30901 1.30901 z m 1.49601,-2.43102 v -2.05702 h 5.23605 c 5.71257,0 5.92539,0.0962 4.6195,2.08929 -1.04373,1.59294 -2.38388,2.02475 -6.28394,2.02475 h -3.57161 z m 7.27498,0.77967 c 0.69679,-0.29114 1.45766,-0.88579 1.69082,-1.32145 0.42157,-0.78771 0.40052,-0.79152 -3.79896,-0.68617 -3.72843,0.0935 -4.23805,0.18513 -4.35248,0.78229 -0.27926,1.4573 0.18491,1.75467 2.73895,1.75467 1.35013,0 3.02488,-0.2382 3.72167,-0.52934 z m -4.56345,-3.87294 -7.57357,-0.10125 v -2.04927 -2.04928 h 6.22041 c 5.57677,0 6.3462,0.0777 7.43607,0.75132 1.26984,0.7848 2.40841,2.8372 1.82515,3.29003 -0.18397,0.14283 -3.7426,0.21413 -7.90806,0.15845 z m 6.63856,-1.18063 c 0,-0.19077 -0.44345,-0.69567 -0.98545,-1.12201 -0.89983,-0.70781 -1.48468,-0.77515 -6.73206,-0.77515 h -5.74661 v 0.87268 c 0,0.47997 0.1122,0.98487 0.24933,1.12201 0.39114,0.39113 13.21479,0.29649 13.21479,-0.0975 z"
         style="fill:#ffffff;fill-opacity:1"
         id="path1-46" /><path
         d="m 167.23533,98.604761 c 0,-1.69433 -3.2286,-2.191858 -3.96043,-3.592688 -0.29019,-0.55546 -0.52761,-1.99515 -0.52761,-3.19931 0,-6.7343 8.06318,-9.70307 12.78582,-4.70759 0.55259,0.58452 1.18372,1.53655 1.40251,2.11562 0.56526,1.49609 0.48827,4.37493 -0.14972,5.59802 -0.2986,0.57245 -0.42193,0.96606 -0.27407,0.87467 0.68426,-0.42289 1.61795,0.86484 1.50226,2.071908 -0.11766,1.227754 -0.15303,1.250564 -2.11354,1.362754 -1.09664,0.0627 -2.1906,-0.0427 -2.43103,-0.234294 -0.24063,-0.19177 -0.7734,-0.21284 -1.18515,-0.0469 -1.20573,0.485994 -5.04904,1.296459 -5.04904,-0.2422 z m 5.3474,-1.03103 c 1.85069,-0.77326 3.53623,-2.923848 3.83071,-4.887618 0.31231,-2.08264 -0.79774,-4.65349 -2.54719,-5.89921 -1.6894,-1.20295 -4.91474,-1.36832 -6.90311,-0.35392 -2.56297,1.30752 -3.92132,4.42442 -3.07816,7.06321 1.16959,3.660418 5.18771,5.544132 8.69775,4.077538 z m -5.37617,-2.831958 c -2.41774,-2.41775 -0.65208,-6.76084 2.74858,-6.76084 2.12494,0 3.88063,1.54434 4.0393,3.55304 0.12658,1.60249 -0.0658,2.15328 -1.12029,3.2078 -0.89511,0.8951 -1.4087,1.09324 -2.8338,1.09324 -1.4251,0 -1.93869,-0.19814 -2.83379,-1.09324 z m 4.95068,-0.64644 c 0.93581,-0.84315 1.14807,-2.24534 0.52291,-3.45428 -1.20648,-2.33306 -4.46468,-2.05905 -5.42086,0.45589 -1.05825,2.78341 2.63034,5.04146 4.89795,2.99839 z m 5.17618,3.422688 c 0,-0.30855 -0.14769,-0.561 -0.32821,-0.561 -0.18051,0 -0.53772,0.25245 -0.7938,0.561 -0.38899,0.4687 -0.33499,0.56101 0.32821,0.56101 0.45626,0 0.7938,-0.23855 0.7938,-0.56101 z"
         style="fill:#ffffff;fill-opacity:1"
         id="path1-77" /><path
         d="m 182.81205,99.081962 c -0.13713,-0.13713 -0.24933,-2.2493 -0.24933,-4.6937 v -4.44438 l 2.15052,0.11217 2.15052,0.11216 0.0767,4.03364 c 0.0422,2.2185 -0.0179,4.28019 -0.13351,4.58154 -0.21649,0.56415 -3.48506,0.80844 -3.99493,0.29857 z m 3.1167,-4.61271 v -3.74003 h -1.30901 -1.30902 v 3.74003 3.74004 h 1.30902 1.30901 z m 4.38576,1.95525 c -2.78631,-2.80274 -2.88975,-2.9701 -2.88975,-4.67505 v -1.76824 h 5.23605 c 4.45826,0 5.23605,0.0853 5.23605,0.57416 0,1.04987 -1.25951,2.516 -2.72513,3.17218 l -1.44746,0.64805 2.08629,1.80117 c 1.14746,0.99065 2.0863,2.10568 2.0863,2.47785 0,0.58099 -0.33178,0.67668 -2.3463,0.67668 h -2.34629 z m 3.69546,-0.59288 c -2.48023,-2.28434 -2.75175,-2.89578 -1.17415,-2.64407 0.9929,0.15842 3.12738,-0.89258 3.59777,-1.77151 0.3654,-0.68275 0.20899,-0.70738 -3.84647,-0.60576 -4.13694,0.10367 -4.23005,0.12504 -4.35364,0.99914 -0.0978,0.69174 0.49061,1.51426 2.60867,3.64654 2.49753,2.51432 2.86563,2.75318 4.24032,2.75163 l 1.50538,-0.002 z m -11.66616,-6.94125 c -0.0853,-0.0857 -0.1551,-1.05345 -0.1551,-2.15052 v -1.99469 h 6.18963 c 4.75988,0 6.43927,0.1291 7.27037,0.55887 1.24122,0.64186 2.24815,1.92984 2.24815,2.87566 0,0.59286 -0.6775,0.65959 -7.69898,0.75829 -4.23444,0.0595 -7.76877,0.0381 -7.85407,-0.0476 z m 14.20089,-1.31775 c -0.54426,-1.41832 -1.8256,-1.70545 -7.61077,-1.70545 h -5.62321 v 1.12201 1.12201 h 6.72033 c 5.69553,0 6.68881,-0.0821 6.51365,-0.53857 z"
         style="fill:#ffffff;fill-opacity:1"
         id="path1-289" /><path
         d="m 2.6862789,118.80982 c -0.118015,-0.30754 -0.161282,-1.208 -0.09615,-2.00101 l 0.118422,-1.44184 4.3652043,-0.18701 c 3.9696078,-0.17005 4.4525968,-0.26917 5.3295478,-1.0937 0.53039,-0.49868 0.964345,-1.12982 0.964345,-1.40251 0,-0.35683 0.63102,-0.49581 2.251146,-0.49581 h 2.251146 l -0.242324,1.02851 c -0.479358,2.03456 -1.819539,3.90608 -3.507941,4.89871 -1.542178,0.90668 -2.096259,1.00309 -6.4529298,1.12283 -3.9679483,0.10906 -4.8018213,0.0374 -4.9804663,-0.42817 z m 10.6801351,-1.3852 c 0.904368,-0.46138 1.828958,-1.36846 2.416122,-2.37038 1.177044,-2.00848 1.177104,-2.1183 0.0012,-2.1183 -0.621798,0 -1.441634,0.51683 -2.373113,1.49602 l -1.423124,1.49601 H 7.8155072 3.6435599 v 1.12201 1.12201 h 4.1289383 c 3.3897018,0 4.3912228,-0.13381 5.5939158,-0.74737 z M 2.7191819,111.45713 c -0.728838,-1.17928 1.201438,-4.57353 3.294448,-5.79304 1.3954203,-0.81305 2.0453953,-0.91593 6.2643831,-0.99155 2.58908,-0.0464 4.903226,0.0366 5.142547,0.18455 0.239322,0.14791 0.43513,0.83429 0.43513,1.52528 0,2.42089 -0.03541,2.43954 -4.631839,2.43954 -4.5232828,0 -5.5654388,0.35049 -6.2286088,2.09476 -0.296845,0.78076 -0.582292,0.89726 -2.1983423,0.89726 -1.021461,0 -1.956434,-0.16056 -2.077718,-0.3568 z m 4.0662573,-2.16403 1.281928,-1.39883 4.3331558,-0.13755 4.333157,-0.13755 v -1.08165 -1.08164 l -4.020537,0.008 c -5.5239788,0.0113 -7.8593731,1.16763 -8.8587171,4.38632 -0.452197,1.45644 1.410047,1.10235 2.9310133,-0.55732 z"
         style="fill:#ffffff;fill-opacity:1"
         id="path1-210" /><path
         d="m 28.755023,119.19438 c 0.137134,0.13713 -0.249335,-2.8811 -0.249335,-6.09769 v -5.84836 l 1.215511,-1.17276 c 1.161523,-1.12068 1.365016,-1.1763 4.581542,-1.25242 l 3.36603,-0.0797 0.112165,2.11406 0.112165,2.11406 h -2.449686 -2.449686 l -0.04497,2.15052 c -0.02473,1.18279 -0.07019,3.32863 -0.101023,4.76855 -0.03083,1.43991 -0.18883,2.8284 -0.35111,3.08552 -0.305397,0.4839 -4.182014,-0.22223 -3.741607,0.21817 z m 3.116695,-5.88171 c 0,-5.65204 -0.104556,-5.46306 3.022616,-5.46306 1.794474,0 1.839429,-0.0274 1.839429,-1.12201 0,-1.12103 -0.002,-1.12201 -2.226423,-1.12201 -4.526055,0 -5.253646,1.1085 -5.253646,8.00409 v 4.71202 h 1.309012 1.309012 z m -9.833929,-4.57556 c -0.449925,-0.44993 -0.29044,-3.39479 0.203341,-3.75464 0.257128,-0.18739 1.611825,-0.27742 3.010438,-0.20007 l 2.542933,0.14064 -0.111911,1.93079 -0.111911,1.93078 -2.634363,0.10833 c -1.4489,0.0596 -2.753237,-0.0106 -2.898527,-0.15583 z m 4.677659,-2.00951 c -0.15721,-1.07114 -0.247543,-1.12201 -1.992244,-1.12201 -1.781295,0 -1.827568,0.0284 -1.827568,1.12201 0,1.10625 0.02798,1.12201 1.992245,1.12201 h 1.992244 z"
         style="fill:#ffffff;fill-opacity:1"
         id="path1-85" /><path
         d="m 45.405002,118.53866 c 0,-2.26674 -2.315016,-2.62886 -2.315016,-8.39136 0,-3.35716 0.141762,-5.12659 0.424739,-5.30148 0.233607,-0.14438 1.201341,-0.26272 2.15052,-0.26297 l 1.72578,-4.6e-4 0.104055,5.10294 0.104055,5.10293 h 1.661606 1.661606 l 0.104356,-4.95554 0.104356,-4.95555 1.737822,-0.1999 c 0.955802,-0.10994 1.923536,-0.13799 2.15052,-0.0623 0.277156,0.0924 0.412698,2.03306 0.412698,5.90894 v 5.77138 l -1.280263,1.39702 c -1.259095,1.37393 -1.331755,1.39888 -4.39454,1.50908 -2.626153,0.0945 -4.352294,0.56883 -4.352294,-0.6627 z m 7.382324,-0.93154 c 0.581963,-0.30095 1.16266,-0.81961 1.290439,-1.1526 0.127778,-0.33298 0.232323,-2.94788 0.232323,-5.81089 v -5.20545 h -1.111456 -1.111456 l -0.104055,5.14254 -0.104055,5.14255 h -2.431022 -2.431022 l -0.104055,-5.14255 -0.104055,-5.14254 h -1.298458 -1.298458 v 5.26481 5.26482 l 1.093241,1.09324 c 1.003781,1.00378 1.311347,1.09324 3.758607,1.09324 1.60777,0 3.085218,-0.21711 3.723482,-0.54717 z"
         style="fill:#ffffff;fill-opacity:1"
         id="path1-25" /><path
         d="m 68.823757,118.4746 c 0,-3.68074 -4.19094,-13.03943 -4.036798,-13.44112 0.126673,-0.3301 0.794767,-0.47273 2.007586,-0.42858 l 1.817732,0.0662 1.095986,2.71802 1.095985,2.71801 0.657151,-2.01581 c 0.771777,-2.36744 1.799694,-3.33219 3.55037,-3.33219 1.567273,0 1.842105,0.0867 1.77816,0.56101 -0.138164,1.02481 -4.026244,13.15335 -4.346203,13.55762 -0.203503,0.25713 -1.02677,0.46751 -1.829482,0.46751 -1.183861,0 -1.790487,-0.1151 -1.790487,-0.87063 z m 4.255778,-4.5112 c 0.731387,-2.3429 1.329795,-4.36251 1.329795,-4.48804 0,-0.12552 -0.47789,-0.22822 -1.061977,-0.22822 -0.769835,0 -1.179171,0.25721 -1.487995,0.93501 -0.816128,1.7912 -1.747681,1.1823 -2.860925,-1.87002 -0.95993,-2.63196 -1.091626,-2.80502 -2.134539,-2.80502 -0.752701,0 -1.072455,0.16611 -0.990565,0.5146 0.06651,0.28303 0.962432,3.14256 1.990941,6.35452 1.801612,5.62628 1.906881,5.84004 2.877743,5.84345 0.95811,0.003 1.0732,-0.2062 2.337522,-4.25628 z m 2.273749,-7.36247 c 0.340766,-1.07365 0.03474,-1.24659 -1.168497,-0.66031 -1.478205,0.72026 -1.580833,1.4365 -0.20583,1.4365 0.813155,0 1.196731,-0.21663 1.374327,-0.77619 z"
         style="fill:#ffffff;fill-opacity:1"
         id="path1-47" /><path
         d="m 83.398751,119.03515 c -0.137134,-0.13714 -0.249335,-3.42742 -0.249335,-7.31173 v -7.0624 l 2.150519,0.11217 2.15052,0.11216 0.109233,2.89853 0.109233,2.89852 h 2.976295 2.976295 v -2.78295 c 0,-1.69867 0.168076,-2.88683 0.431389,-3.04956 0.359695,-0.22231 2.041673,-0.30448 3.690724,-0.18031 0.249669,0.0188 0.346878,2.5238 0.280503,7.22833 l -0.101577,7.19957 -0.923801,0.1303 c -0.747122,0.10538 -1.444534,-0.43109 -3.646534,-2.80503 l -2.722731,-2.93532 -2.711525,2.90619 c -2.525682,2.70701 -3.742488,3.41825 -4.519208,2.64153 z m 3.824937,-3.3972 c 1.338106,-1.48849 2.272413,-2.86987 2.276631,-3.36603 0.0062,-0.73362 -0.184653,-0.84151 -1.488859,-0.84151 h -1.496014 v -2.99203 -2.99202 h -1.276875 -1.276875 l -0.04634,6.35805 c -0.03883,5.32771 0.04159,6.35806 0.496257,6.35806 0.298429,0 1.563863,-1.13603 2.812075,-2.52452 z m 9.763854,-3.83354 v -6.35805 h -1.12201 -1.122011 v 2.99202 2.99203 h -1.683015 c -1.28312,0 -1.683015,0.14013 -1.683015,0.58974 0,0.72799 4.497513,6.07521 5.142547,6.11412 0.356775,0.0215 0.467504,-1.47771 0.467504,-6.32986 z"
         style="fill:#ffffff;fill-opacity:1"
         id="path1-29" /><path
         d="m 104.04849,118.93842 c 0,-0.27324 0.36356,-1.92983 1.12713,-3.772 l 1.3883,-3.3494 -1.34756,-3.13681 c -1.42669,-3.321 -1.57468,-3.92462 -0.97356,-3.97086 1.67191,-0.12861 3.42273,-0.0392 3.64822,0.18629 0.14993,0.14992 0.72143,1.396 1.27001,2.76906 l 0.99741,2.49647 0.41823,-1.12201 c 1.01553,-2.72442 1.2943,-3.24035 2.02897,-3.75493 0.98567,-0.69039 4.14382,-0.75454 3.86974,-0.0786 -0.10426,0.25713 -0.7393,1.86021 -1.41121,3.5624 l -1.22165,3.0949 1.33145,3.34385 c 1.52441,3.82846 1.39711,4.23994 -1.25205,4.04683 -1.5734,-0.11469 -1.60905,-0.14849 -2.48926,-2.36037 -0.49115,-1.23422 -1.02148,-2.37786 -1.17851,-2.54144 -0.15704,-0.16358 -0.70362,0.84623 -1.21463,2.24402 l -0.92912,2.54144 -1.90036,0.11188 c -1.12639,0.0663 -2.16155,-0.0162 -2.16155,-0.31071 z m 4.36384,-3.3542 c 0,-3.74164 2.16612,-3.45994 3.51549,-0.0206 0.98677,2.5151 1.09214,2.63864 2.25052,2.63864 h 1.21528 l -1.30865,-3.08553 c -1.13848,-2.68431 -1.25556,-3.23487 -0.90036,-4.23409 0.56779,-1.59728 0.54374,-1.65646 -0.67319,-1.65646 -0.84164,0 -1.1335,0.20734 -1.31613,0.93501 -0.14403,0.57385 -0.50068,0.93501 -0.92334,0.93501 -0.50105,0 -0.99832,-0.73873 -1.82525,-2.71153 -1.03313,-2.46471 -1.24214,-2.72219 -2.29624,-2.82872 -0.63781,-0.0645 -1.15965,-0.052 -1.15965,0.0277 0,0.0797 0.59371,1.51489 1.31937,3.18939 l 1.31937,3.04454 -0.98983,2.35086 c -1.84011,4.37032 -1.80958,4.09689 -0.44255,3.96405 1.09871,-0.10677 2.21516,-0.14985 2.21516,-2.5482 z m 6.43112,-9.05325 c 0.29696,-1.13558 -0.002,-1.30741 -1.14828,-0.66088 -1.4267,0.80442 -1.50792,1.48605 -0.17707,1.48605 0.82961,0 1.164,-0.20819 1.32535,-0.82517 z"
         style="fill:#ffffff;fill-opacity:1"
         id="path1-311" /><path
         d="m 127.80918,119.10302 c -0.14556,-0.14555 -0.26466,-1.04304 -0.26466,-1.99441 0,-1.05594 -0.65202,-3.67376 -1.67383,-6.72029 -0.92061,-2.74479 -1.58389,-5.13608 -1.47394,-5.31397 0.10994,-0.17789 1.07744,-0.32344 2.15,-0.32344 h 1.9501 l 0.88735,2.60641 c 0.48804,1.43353 1.03068,2.51783 1.20587,2.40956 0.17518,-0.10827 0.42434,-0.85868 0.55369,-1.66759 0.25585,-1.60001 1.68789,-3.32558 2.80982,-3.38578 2.08338,-0.11179 2.74769,-0.048 2.68991,0.2584 -0.0353,0.187 -0.76992,2.35962 -1.63257,4.82805 -0.86265,2.46842 -1.6753,5.582 -1.8059,6.91906 l -0.23745,2.43102 -2.44687,0.10882 c -1.34578,0.0598 -2.56596,-0.0103 -2.71152,-0.15584 z m 4.22339,-2.12684 c 0,-0.68137 0.49422,-2.70099 1.09829,-4.48804 l 1.0983,-3.24919 h -1.25929 c -1.02118,0 -1.28188,0.15911 -1.3788,0.84151 -0.0867,0.61069 -0.37038,0.84151 -1.03413,0.84151 -0.79816,0 -1.03628,-0.34519 -1.87002,-2.71073 -0.91162,-2.58654 -1.00922,-2.71077 -2.1303,-2.71153 l -1.1749,-7.9e-4 0.9257,2.89852 c 0.50913,1.59419 1.24693,3.90834 1.63955,5.14255 0.39262,1.23421 0.71514,2.791 0.71671,3.45953 0.003,1.19085 0.037,1.21551 1.68587,1.21551 1.65596,0 1.68302,-0.0199 1.68302,-1.23885 z m 3.00917,-10.38729 c 0.2296,-0.42902 0.32507,-0.87242 0.21215,-0.98534 -0.32431,-0.32432 -2.39788,0.65534 -2.62171,1.23862 -0.34745,0.90545 1.9168,0.66745 2.40956,-0.25328 z"
         style="fill:#ffffff;fill-opacity:1"
         id="path1-391" /><path
         d="m 142.52023,118.77721 c -0.79257,-0.955 -0.29288,-1.76272 2.78328,-4.49899 2.82149,-2.50973 2.98547,-2.73969 2.87687,-4.03452 l -0.11517,-1.3731 -2.87686,-0.10884 -2.87686,-0.10885 -0.11749,-1.64032 c -0.0646,-0.90218 0.0372,-1.79502 0.22626,-1.98408 0.35474,-0.35474 13.69073,-0.48622 14.25013,-0.14049 1.08545,0.67084 -0.77707,2.97116 -5.16812,6.38292 -0.78298,0.60836 -0.94104,1.00984 -0.84663,2.15052 l 0.11608,1.40251 h 2.70764 c 1.48921,0 2.87534,0.16769 3.0803,0.37265 0.20518,0.20518 0.28081,1.17159 0.1683,2.15052 l -0.20434,1.77787 -6.77294,0.10173 c -5.59975,0.0841 -6.85218,0.006 -7.23045,-0.44953 z m 13.44238,-1.70922 v -1.12201 h -2.99203 -2.99202 v -1.49601 c 0,-1.26401 -0.12018,-1.49602 -0.77494,-1.49602 -0.9021,0 -5.95713,4.03039 -5.95713,4.74964 0,0.38014 1.38913,0.48641 6.35806,0.48641 h 6.35806 z m -2.52329,-8.64295 c 1.38917,-1.24882 2.43112,-2.42371 2.31545,-2.61086 -0.11567,-0.18716 -2.97735,-0.34029 -6.35929,-0.34029 h -6.14899 v 1.12201 1.12201 h 2.99203 2.99203 v 1.49601 c 0,1.30421 0.10789,1.4951 0.84151,1.48886 0.4962,-0.004 1.87792,-0.93886 3.36726,-2.27774 z"
         style="fill:#ffffff;fill-opacity:1"
         id="path1-38" /><path
         d="m 27.844537,19.074075 c -0.456892,-0.45689 -0.272679,-3.7773 0.218168,-3.93243 0.405858,-0.12828 2.058617,-0.11728 3.553033,0.0236 0.311992,0.0294 0.467504,0.72834 0.467504,2.10111 v 2.05702 h -1.994685 c -1.097077,0 -2.106886,-0.11221 -2.24402,-0.24934 z m 3.42204,-1.90118 c -0.09861,-0.85702 -0.321022,-1.04806 -1.333855,-1.14571 -1.132324,-0.10918 -1.215511,-0.0388 -1.215511,1.02851 0,1.06411 0.095,1.14571 1.333854,1.14571 1.234468,0 1.325037,-0.0766 1.215512,-1.02851 z m -3.509022,-3.20193 c -0.288876,0 -0.140286,-2.41555 -0.08176,-4.7685395 l 0.106411,-4.2781797 2.150519,-0.11216 2.15052,-0.11217 v 4.8807097 4.8807095 h -2.068757 c -1.361443,0 -1.911276,-0.49037 -2.25693,-0.49037 z M 31.148233,9.5992955 V 5.6722558 l -0.935008,0.049 c -0.514255,0.027 -1.061235,0.069 -1.215511,0.0935 -0.154277,0.0245 -0.280503,1.82231 -0.280503,3.9952197 v 3.9507295 l 1.215511,-0.1172 1.215511,-0.1172 z"
         style="fill:#ffffff;fill-opacity:1"
         id="path1-40" /><path
         d="m 50.724379,9.7292282 c -0.103184,-0.2689 -0.136438,-1.479861 -0.0739,-2.69104 l 0.113705,-2.20215 1.780331,-0.11414 c 2.025796,-0.1298777 2.382744,0.27703 1.989008,2.26748 -0.326412,1.650109 -1.031721,2.485989 -2.437943,2.88929 -0.879486,0.2522288 -1.231796,0.2138398 -1.371201,-0.14944 z m 2.255913,-1.68331 c 0.85986,-0.950141 0.647339,-2.46187 -0.346092,-2.46187 -0.612632,0 -0.76882,0.28767 -0.863012,1.589519 -0.125596,1.735881 0.209088,1.977351 1.209104,0.872351 z"
         style="fill:#ffffff;fill-opacity:1"
         id="path1-675"
         sodipodi:nodetypes="sscssssssss" /><path
         d="m 88.862736,18.430878 c -0.0855,-0.0857 -0.15541,-0.71684 -0.15541,-1.40251 v -1.24668 h -1.89152 -1.89152 l 0.115,-1.58951 0.11501,-1.58952 1.87001,-0.10949 1.87002,-0.1095 -0.13417,-1.92186 c -0.100653,-1.4417687 -0.22208,-1.7647693 -0.48609,-1.2930097 -0.47492,0.8486397 -3.30678,0.8939697 -3.30678,0.0529 0,-1.1086296 1.55235,-3.6052496 2.62414,-4.2203696 0.81797,-0.46945 1.10851,-0.94045 1.19222,-1.93276 0.10594,-1.25582 0.17878,-1.3169581 1.70019,-1.42704 l 1.58952,-0.11501 v 1.33052 1.33052 h 1.87002 1.87001 v 1.68301 1.68302 l -3.27253,0.0629 c -1.79989,0.034595 -2.64986,0.12838 -1.88881,0.20846 1.37784,0.14496 1.3843,0.15382 1.52315,2.0876396 0.10893,1.5171797 0.20441,1.7579597 0.43642,1.1005597 0.23901,-0.67723 0.58053,-0.84151 1.74938,-0.84151 1.3193,0 1.45239,0.0902 1.45239,0.98437 0,1.33563 -1.33492,3.40116 -2.63142,4.07161 -0.82698,0.42765 -1.08902,0.85359 -1.17941,1.91713 -0.11118,1.30821 -0.17821,1.36894 -1.5503,1.40465 -0.78876,0.0205 -1.50404,-0.0328 -1.58952,-0.11852 z m 2.46261,-2.00313 c 0,-1.00258 0.22461,-1.34492 1.24178,-1.8927 1.18178,-0.63644 2.49826,-2.32565 2.49826,-3.2056 0,-0.79866 -1.06467,-0.39235 -2.35622,0.89921 -1.26637,1.26636 -1.40163,1.30901 -4.15144,1.30901 -2.59309,0 -2.84243,0.0656 -2.84243,0.74801 0,0.64827 0.24934,0.74801 1.87002,0.74801 h 1.87002 v 1.30901 c 0,1.14694 0.11576,1.30901 0.935,1.30901 0.80687,0 0.93501,-0.16774 0.93501,-1.22396 z m 0,-6.25611 c 0,-1.3464097 -0.0935,-1.4960093 -0.93501,-1.4960093 -0.81034,0 -0.935,0.1662196 -0.935,1.2466796 0,1.4238497 0.21816,1.7453397 1.18434,1.7453397 0.55062,0 0.68567,-0.29466 0.68567,-1.49601 z m -3.12163,-2.2440193 c 0.9025,-1.07257 1.07449,-1.12201 3.90289,-1.12201 2.90669,0 2.95878,-0.0165 2.95878,-0.93501 0,-0.87267 -0.12467,-0.93501 -1.87002,-0.93501 h -1.87002 v -1.33502 c 0,-1.17055 -0.10367,-1.3203 -0.84151,-1.21551 -0.67127,0.0953 -0.86456,0.39606 -0.95547,1.48662 -0.0901,1.08029 -0.30062,1.41395 -1.00368,1.5904 -0.86447,0.21697 -2.07035,1.60411 -2.54979,2.93304 -0.40149,1.1128896 1.17773,0.7816396 2.22882,-0.4675 z"
         style="fill:#ffffff;fill-opacity:1"
         id="path1-282" /><path
         d="m 103.04831,17.161239 c 0,-0.27937 7.79247,-13.6972097 8.20524,-14.1285997 0.1583,-0.16543 1.22646,-0.2495844 2.37369,-0.187 l 2.08587,0.11379 -4.00051,7.1060697 -4.0005,7.10606 -2.3319,0.11135 c -1.28254,0.0612 -2.33189,0.006 -2.33189,-0.12167 z m 7.18319,-6.64434 c 3.94417,-6.9349696 3.97848,-7.0142796 2.9478,-6.8157996 -0.43104,0.083 -0.93383,0.24371 -1.11731,0.35711 -0.34831,0.21527 -7.14366,11.5992996 -7.14366,11.9675496 0,0.11594 0.46354,0.2108 1.03009,0.2108 0.93742,0 1.32278,-0.51462 4.28308,-5.71966 z m 1.40928,5.14842 c -1.34134,-1.42779 -1.21316,-3.34705 0.31471,-4.7122 1.40988,-1.25973 2.42535,-1.34534 4.06914,-0.34306 1.96319,1.19704 2.03921,4.0677 0.14621,5.5211 -0.32638,0.25059 -1.27936,0.46096 -2.11774,0.4675 -1.15632,0.009 -1.7387,-0.2163 -2.41232,-0.93334 z m 4.04043,-0.38498 c 1.00855,-0.70642 1.1199,-2.59293 0.21225,-3.59588 -0.81667,-0.90241 -2.56056,-0.87045 -3.49507,0.064 -2.16335,2.16336 0.75461,5.30266 3.28282,3.53183 z m -2.89173,-0.70621 c -0.67741,-0.81624 -0.31749,-2.18955 0.70724,-2.69855 1.64595,-0.81755 3.15765,0.82807 2.27527,2.47683 -0.48316,0.90279 -2.30487,1.03822 -2.98251,0.22172 z m 2.15678,-1.05453 c 0.14885,-0.7729 -0.93082,-1.29371 -1.50066,-0.72388 -0.56983,0.56984 -0.049,1.64951 0.72388,1.50066 0.35824,-0.069 0.70779,-0.41854 0.77678,-0.77678 z m -11.60477,-4.66503 c -3.01006,-1.8667396 -1.64606,-6.0821697 1.96803,-6.0821697 1.11794,0 1.61415,0.23986 2.38059,1.1507101 0.53254,0.63289 0.96825,1.46648 0.96825,1.85242 0,1.2205 -0.85717,2.64417 -1.92426,3.1959796 -1.3307,0.68813 -2.13941,0.66026 -3.39261,-0.11694 z m 3.54035,-1.1479396 c 1.3281,-1.14063 0.6113,-3.41941 -1.26267,-4.01419 -1.7881,-0.5675201 -3.72248,2.36739 -2.51737,3.81946 1.0377,1.25035 2.46531,1.3239 3.78004,0.19473 z m -3.29212,-0.61061 c 1.06241,0 -0.58333,-1.0249 -0.0148,-1.8926 0.75184,-1.14746 2.09296,-1.21846 3.04955,-0.16144 0.6389,0.70598 0.6511,0.8612 0.13967,1.77652 -0.78445,1.40393 -4.6844,0.27752 -3.17443,0.27752 z m 2.32985,-0.80833 c 0.31885,-0.8309 -0.67719,-1.38122 -1.326,-0.73263 -0.28147,0.28138 -0.39776,0.69605 -0.25843,0.92149 0.37626,0.6088 1.32158,0.49612 1.58443,-0.18886 z"
         style="fill:#ffffff;fill-opacity:1"
         id="path1-27" /><path
         d="m 128.12994,9.729228 c -0.10319,-0.2689 -0.13643,-1.4798598 -0.0739,-2.6910401 l 0.1137,-2.20215 1.78033,-0.11414 c 2.0258,-0.1298775 2.38275,0.27703 1.98901,2.26748 -0.32641,1.6501101 -1.03172,2.4859901 -2.43794,2.8892898 -0.87949,0.2522303 -1.2318,0.2138403 -1.3712,-0.1494397 z m 2.25591,-1.68331 c 0.85986,-0.9501401 0.64734,-2.4618701 -0.34609,-2.4618701 -0.61263,0 -0.76882,0.28767 -0.86301,1.58952 -0.1256,1.7358801 0.20909,1.9773501 1.2091,0.8723501 z"
         style="fill:#ffffff;fill-opacity:1"
         id="path1-159" /><path
         d="m 148.03673,18.26518 c -2.03955,0 -1.96138,-2.3917 -1.96138,-8.04942 0,-6.0938603 0.38458,-7.4005003 2.46934,-8.3897803 0.70924,-0.33656 1.89932,-0.5599452 2.64461,-0.49641 l 1.35509,0.11552 -0.002,1.86261 c -0.002,1.65573 -0.10147,1.88602 -0.897,2.0733 -0.8757,0.20616 -0.89719,0.3082599 -0.99974,4.7500203 l -0.10481,4.53932 1.00192,0.11944 c 0.93713,0.111716 1.00187,0.24035 1.00134,1.98945 l -5.7e-4,1.87001 -1.83155,0.10615 c -1.21889,0.0706 -1.98761,-0.49021 -2.67519,-0.49021 z m 3.64867,-1.27294 c 0,-0.85184 -0.18746,-1.12262 -0.84151,-1.21551 -0.82376,-0.11699 -0.84369,-0.23582 -0.945,-5.63606 l -0.1035,-5.5165503 h 0.945 c 0.80068,0 0.94501,-0.17137 0.94501,-1.12201 0,-1.00358 -0.12147,-1.12201 -1.15078,-1.12201 -0.77324,0 -1.50944,0.35866 -2.24402,1.09324 l -1.09324,1.09324 v 5.24047 c 0,2.8822603 0.16055,5.6627403 0.35677,6.1788503 0.3975,1.04551 2.00343,2.06448 3.28976,2.08737 0.68464,0.0122 0.84151,-0.18934 0.84151,-1.08103 z"
         style="fill:#ffffff;fill-opacity:1"
         id="path1-107" /><path
         d="m 167.29521,18.300648 c 0.29156,-0.09719 -0.1469,-1.16386 -0.0818,-1.94875 0.097,-1.16902 0.2875,-1.46646 1.05344,-1.6449 0.91053,-0.21212 0.93787,-0.3153 1.04434,-3.9418 0.13241,-4.5097797 -0.0356,-5.3179297 -1.13846,-5.4745697 -0.74381,-0.10564 -0.84089,-0.33532 -0.84089,-1.98945 v -1.87001 l 1.97141,0.0164 c 1.63495,0.013601 2.1456,0.19034 2.99203,1.03558 1.00896,1.00756 1.02275,1.0883 1.20761,7.07605 0.19778,6.4060097 0.0422,7.2706297 -1.54866,8.6086297 -0.97733,0.82196 -5.45722,0.398887 -4.65905,0.13283 z m 3.17124,-0.64088 c 1.94735,-0.67885 2.28847,-1.84505 2.28847,-7.8237197 v -5.28339 l -1.09324,-1.09324 c -0.73458,-0.7345825 -1.47078,-1.09324 -2.24402,-1.09324 -1.02931,0 -1.15078,0.11843 -1.15078,1.12201 0,0.94747 0.14544,1.12201 0.935,1.12201 h 0.93501 v 5.4159197 5.41592 l -0.93501,0.23468 c -0.72766,0.182637 -0.935,0.47449 -0.935,1.31613 0,1.19678 0.36347,1.30698 2.19957,0.66692 z"
         style="fill:#ffffff;fill-opacity:1"
         id="path1-480" /><path
         d="m 45.953979,9.7292284 c -0.103184,-0.2689 -0.136437,-1.479861 -0.0739,-2.69104 l 0.113705,-2.2021507 1.780331,-0.11414 c 2.025796,-0.1298772 2.382744,0.2770297 1.989008,2.2674807 -0.326412,1.65011 -1.031721,2.48599 -2.437943,2.88929 -0.879486,0.2522296 -1.231796,0.2138396 -1.371201,-0.14944 z m 2.255913,-1.68331 c 0.85986,-0.95014 0.647339,-2.46187 -0.346092,-2.46187 -0.612632,0 -0.76882,0.28767 -0.863012,1.58952 -0.125596,1.73588 0.209088,1.97735 1.209104,0.87235 z"
         style="fill:#ffffff;fill-opacity:1"
         id="path1" /></g><path
       d="m 188.93484,12.858642 c -0.074,-0.07407 -0.13467,-0.478155 -0.13467,-0.897965 v -0.763312 l -0.95955,-0.06157 -0.95953,-0.06158 V 10.16519 9.2561528 l 0.9489,-0.061136 0.9489,-0.061136 0.0612,-0.9488983 0.0612,-0.9489036 0.86386,-0.1152946 c 1.04561,-0.1395521 1.26977,0.073241 1.20446,1.1432938 l -0.0482,0.7900696 0.97013,0.062 0.97014,0.062007 -0.0611,0.9480343 -0.0611,0.948034 -0.92086,0.101003 c -0.8761,0.09609 -0.91915,0.130462 -0.88573,0.707032 0.0193,0.33331 -0.008,0.719649 -0.0603,0.858531 -0.0995,0.26325 -1.69513,0.360294 -1.93759,0.117838 z m 1.48138,-1.380386 v -0.909055 h 0.90904 c 0.83496,0 0.90904,-0.04116 0.90904,-0.505014 0,-0.4638734 -0.074,-0.5050197 -0.90904,-0.5050197 h -0.90904 V 8.5491271 c 0,-0.9427032 -0.0336,-1.0100403 -0.50501,-1.0100403 -0.47061,0 -0.50503,0.068077 -0.50503,0.9989728 v 0.9989675 l -0.95953,0.061575 c -0.81884,0.05254 -0.96901,0.128214 -1.02409,0.5160869 -0.0596,0.42007 0.0131,0.454513 0.95953,0.454513 h 1.02409 v 0.909039 c 0,0.834964 0.0412,0.909037 0.50503,0.909037 0.46387,0 0.50501,-0.07407 0.50501,-0.909037 z"
       style="fill:#ffffff;stroke-width:0.540123;fill-opacity:1"
       id="path1-2"
       sodipodi:nodetypes="cscccccccccsscccccsscccccssscssscssscsscc" /><path
       d="m 187.25176,11.40427 c -1e-5,-0.104751 0.24288,-0.433336 0.53972,-0.730187 l 0.53975,-0.539744 -0.63496,-0.7220288 -0.63496,-0.7220356 0.64279,-0.6427814 0.64279,-0.6427863 0.7142,0.6277455 0.71421,0.6277471 0.71419,-0.6277485 0.7142,-0.6277463 0.69237,0.5293135 c 0.83803,0.6406742 0.84608,0.9496556 0.0433,1.6601061 l -0.59277,0.5245587 0.64215,0.729831 0.64215,0.729836 -0.71357,0.627154 -0.71357,0.627156 -0.72257,-0.579726 c -0.68744,-0.551548 -0.74219,-0.55769 -1.12625,-0.126363 -0.22202,0.249358 -0.51441,0.50333 -0.6497,0.564442 -0.25649,0.11581 -1.45341,-0.943876 -1.45341,-1.286761 z m 2.02357,0.07142 0.64281,-0.642799 0.64278,0.642783 c 0.59041,0.59041 0.67189,0.613684 0.99988,0.285689 0.32801,-0.328007 0.30473,-0.40948 -0.28568,-0.999889 l -0.64278,-0.642783 0.7142,-0.7142058 c 0.66659,-0.6665922 0.69041,-0.7379993 0.35711,-1.0713086 -0.33277,-0.3327671 -0.40525,-0.3089665 -1.06348,0.3492768 l -0.70638,0.7063765 -0.72203,-0.6349527 c -0.61618,-0.541854 -0.77586,-0.5945309 -1.08907,-0.359211 -0.33923,0.2548463 -0.31215,0.3306306 0.3571,0.9998817 l 0.72414,0.7241401 -0.64279,0.642787 c -0.5904,0.590409 -0.61368,0.671889 -0.2857,0.999885 0.328,0.328005 0.40948,0.304725 0.99989,-0.285683 z"
       style="fill:#ffffff;stroke-width:0.540123;fill-opacity:1"
       id="path1-0"
       sodipodi:nodetypes="cscccccccccsscccccsscccccssscssscssscsscc" /></g></svg>
